<svg viewBox="0 0 24 24" xmlns="http://www.w3.org/2000/svg" fill="none" stroke="currentColor" strokeWidth="1.5" strokeLinecap="round" strokeLinejoin="round">
	<!-- center circle stroke-only to preserve hollow center -->
	<circle cx="12" cy="12" r="3" fill="none" />
	<path d="M19.4 15a1.65 1.65 0 00.33 1.82l.06.06a2 2 0 01-2.83 2.83l-.06-.06a1.65 1.65 0 00-1.82-.33 1.65 1.65 0 00-1 1.51V21a2 2 0 01-4 0v-.09a1.65 1.65 0 00-1-1.51 1.65 1.65 0 00-1.82.33l-.06.06a2 2 0 01-2.83-2.83l.06-.06a1.65 1.65 0 00.33-1.82 1.65 1.65 0 00-1.51-1H3a2 2 0 010-4h.09a1.65 1.65 0 001.51-1 1.65 1.65 0 00-.33-1.82L4.21 6.2a2 2 0 012.83-2.83l.06.06a1.65 1.65 0 001.82.33H9a1.65 1.65 0 001-1.51V3a2 2 0 014 0v.09c.09.57.57 1.02 1.14 1.12.48.09.98-.18 1.28-.59l.06-.06A2 2 0 0119.79 4.2l-.06.06a1.65 1.65 0 00-.33 1.82V9c.09.57.57 1.02 1.14 1.12.48.09.98-.18 1.28-.59l.06-.06A2 2 0 0119.79 12.8l-.06.06c-.2.2-.33.46-.33.75z" />
</svg>